<svg id="Layer_1" xmlns="http://www.w3.org/2000/svg" width="2000.5" height="107.7"><style>.st0{opacity:.2;fill:#1a1a1a;enable-background:new}</style><path class="st0" d="M2000 1.4c-346-.6-524.6-4.7-878.8 4.4-286.6 7.4-442.3 54-608.1 51.2C307.8 53.5 203-15.8 0 7.3v100.4l2000-.5V1.4z"/><path class="st0" d="M.2 24.8C251.5-6 441.4 63.4 500.1 77.1c54.7 12.8 122.5 12 186.7-5.3C841 30.2 1002.3.9 1162 4.3s324.6 22.4 484.3 19.7c133-2.3 302.8 1.7 352.8 3.7v80H0l.2-82.9z"/><path d="M2000.5 18.9C1860.7 6.2 1780.6 8.1 1640.3 7.7c-285.5-.8-487.5 18-736.2 51.1-256.6 34.3-356.9 35.3-704.4-27.5C140.8 20.7 60 23.3 0 30v77.7h2000l.5-88.8z" opacity=".4" fill="#1a1a1a"/><path d="M1635.1 27.8c-193.8 11.9-366.9 24.9-569 50-110.2 13.7-221.2 21.5-332.3 19.6-187-3.3-344.5-29.7-560.9-69.8C50.7 5 .1 23.6.1 23.6v84.1h1998v-84c-.1 0-166.6-7.9-363 4.1z" fill="#1a1a1a"/></svg>