<svg id="Layer_1" xmlns="http://www.w3.org/2000/svg" viewBox="0 0 1045 353.8"><style>.st0{fill:#fff}</style><title>partner</title><path class="st0" d="M484.6 202.1c-18.4 0-32.4-3.9-44.4-16l15.4-15.4c7.7 7.7 18.1 10.2 29.2 10.2 14.2 0 21.7-5.5 21.7-15.2 0-4.1-1.2-7.5-3.8-10.1-2.4-2.2-4.8-3.2-10.9-4.1l-14.5-2.2c-10.8-1.5-18.1-4.8-23.6-10.1-5.8-5.6-8.7-13.7-8.7-23.9 0-21.7 16-36.9 42.3-36.9 16.8 0 28.9 4.1 39.3 14.1l-15 14.9c-7.5-7.4-16.9-8.4-24.9-8.4-12.6 0-18.6 7-18.6 15.4 0 3.2.9 6.3 3.4 8.7 2.4 2.2 6 3.9 11.1 4.6l14.5 2.2c11.1 1.5 17.9 4.4 23.2 9.5 6.5 6 9.4 14.7 9.4 25.6.1 23.8-19.4 37.1-45.1 37.1zm109.5-50.9V201h-23.6v-49.8L534 79.5h25.8l22.7 49 22.4-49h25.8l-36.6 71.7zm128.7 32.1c-8.7 12.2-20.1 17.8-36.7 17.8h-43.9V79.5h43.9c16.6 0 28 5.6 36.7 17.8 7.5 10.4 7.7 22.9 7.7 43s-.2 32.6-7.7 43zm-21-75.1c-3.9-5-9.7-7.5-17.8-7.5h-18v79.2h18.1c8 0 13.8-2.5 17.8-7.5 4.4-5.3 5-13 5-32.1-.1-19.1-.6-26.8-5.1-32.1zm119.1 92.9l-48.2-74.6v74.6h-23.8V79.5h21.2l48.1 74.4V79.5H842v121.6h-21.1zm187.5-49.9V201h-23.6v-49.8l-36.5-71.7h25.8l22.7 49 22.4-49h25.8l-36.6 71.7zM861.8 79.5v121.6h80.1v-21.2h-56.4v-29.5h48v-21.2h-48v-28.5h56.4v-.2l-10.7-21zm45.5 195.3L883.6 238v36.8h-11.7v-60h10.5l23.8 36.8v-36.8h11.7v60h-10.6zm39.4.5c-9.1 0-16-1.9-21.9-7.9l7.6-7.6c3.8 3.8 8.9 5.1 14.4 5.1 7 0 10.7-2.7 10.7-7.5 0-2-.6-3.7-1.8-5-1.2-1.1-2.4-1.6-5.4-2l-7.2-1.1c-5.3-.8-8.9-2.4-11.6-5-2.9-2.8-4.3-6.7-4.3-11.8 0-10.7 7.9-18.2 20.9-18.2 8.3 0 14.2 2 19.4 7l-7.4 7.3c-3.7-3.6-8.4-4.1-12.3-4.1-6.2 0-9.2 3.5-9.2 7.6 0 1.6.4 3.1 1.7 4.3 1.2 1.1 2.9 1.9 5.5 2.3l7.2 1.1c5.5.8 8.9 2.2 11.5 4.7 3.2 2.9 4.6 7.3 4.6 12.7-.1 11.5-9.7 18.1-22.4 18.1zm82.1-.5h-9.8l-11.1-36.4-11 36.4h-9.8l-16-60h12.2l9.3 37.9 11-37.9h8.8l11 37.9 9.4-37.9h12.2l-16.2 60zm-546-8.8c-4.3 6-10 8.8-18.2 8.8h-21.7v-60.2h21.7c8.2 0 13.9 2.8 18.2 8.8 3.7 5.2 3.8 11.3 3.8 21.3s-.1 16.2-3.8 21.3zm-10.4-37.2c-2-2.4-4.8-3.7-8.8-3.7h-9v39.2h9c4 0 6.8-1.3 8.8-3.7 2.2-2.6 2.4-6.4 2.4-15.9s-.2-13.3-2.4-15.9zm30.9 27.4c0 5.8 3.4 9.8 9.6 9.8 4.8 0 7.2-1.4 10-4.1l6.7 6.5c-4.5 4.6-8.8 6.9-16.8 6.9-10.4 0-20.4-4.7-20.4-22.6 0-14.4 7.8-22.5 19.2-22.5 12.3 0 19.2 8.8 19.2 21.3v4.6h-27.5v.1zm15.7-12.3c-1.2-2.6-3.6-4.6-7.3-4.6s-6.2 1.9-7.4 4.6c-.8 1.6-.9 2.8-1 4.7H520c-.1-1.9-.3-3-1-4.7zm34.1 31.4c-6.9 0-13.1-.7-18.8-6.3l7.2-7.2c3.5 3.6 8.4 4.1 11.8 4.1 3.8 0 7.8-1.3 7.8-4.6 0-2.2-1.1-3.7-4.7-4.1l-7.1-.7c-7.8-.8-12.7-4.2-12.7-12.4 0-9.2 8-14 17-14 6.9 0 12.6 1.3 16.8 5.1l-6.8 6.9c-2.5-2.3-6.4-3-10.2-3-4.4 0-6.3 2-6.3 4.2s1.3 3.5 4.6 3.8l6.9.7c8.7.8 13.1 5.4 13.1 12.9.1 10-8.2 14.6-18.6 14.6zm39.3-.5c-9 0-12.8-6.3-12.8-12.6v-21.8H575V232h4.7v-13h11v13h7.8v8.4h-7.8v21.2c0 2.5 1.2 4 3.8 4h4v9.3h-6.1v-.1zm13.5-51.6v-9h11.2v9h-11.2zm.1 51.6V232h11v42.8h-11zm45.1 0v-26.6c0-6-3.8-8-7.3-8s-7.4 2-7.4 8v26.6h-11v-44.1h10.7v4.1c2.9-3 6.9-4.6 11-4.6 4.4 0 8 1.4 10.4 3.9 3.6 3.6 4.5 7.7 4.5 12.5v28.2h-10.9zm43 0V271c-3 3-5.7 4.2-10.8 4.2-5 0-8.7-1.4-11.3-3.9-2.4-2.5-3.6-6-3.6-9.9 0-7 4.8-12.8 15.2-12.8h10.2v-2.2c0-4.8-2.4-6.9-8.2-6.9-4 0-6.1 1.1-8.5 3.8l-6.9-6.8c4.3-4.7 8.5-6.3 15.8-6.3 12.4 0 18.8 5.2 18.8 15.6v29h-10.7zm-.2-18.6h-8.4c-4.4 0-6.5 1.8-6.5 5.1 0 3 2.1 5 6.7 5 2.7 0 4.7-.3 6.5-2.1 1.3-1.1 1.7-2.8 1.7-5.6v-2.4zm34.2 18.6c-9 0-12.8-6.3-12.8-12.6v-21.8h-4.6V232h4.6v-13h11v13h7.8v8.4h-7.8v21.2c0 2.5 1.2 4 3.8 4h4v9.3h-6v-.1zm13.5-51.6v-9h11.2v9h-11.2zm.2 51.6V232h11v42.8h-11zm50.2-5.2c-2.8 2.9-7.2 5.4-13.7 5.4s-10.8-2.5-13.6-5.4c-4-4.2-5-9.2-5-17.2 0-7.9 1-12.8 5-17.1 2.8-2.9 7.1-5.4 13.6-5.4s10.9 2.5 13.7 5.4c4 4.2 5 9.1 5 17.1 0 8-.9 13-5 17.2zm-8.5-27.9c-1.3-1.3-3-2-5.2-2-2.1 0-3.8.7-5.1 2-2.3 2.2-2.5 6.2-2.5 10.6 0 4.6.3 8.6 2.5 10.8 1.3 1.3 3 1.9 5.1 1.9 2.2 0 3.9-.7 5.2-1.9 2.3-2.2 2.5-6.2 2.5-10.8 0-4.4-.3-8.4-2.5-10.6zm45.7 32.8v-26.6c0-6-3.8-8-7.3-8s-7.4 2-7.4 8v26.6h-11v-44.1h10.7v4.1c2.9-3 6.9-4.6 11-4.6 4.4 0 7.9 1.4 10.4 3.9 3.5 3.6 4.5 7.7 4.5 12.5v28.2h-10.9zm-721.3-83.4c11.3-62.5 43.4-135.2 87.8-173.8h-176c44.3 31.6 81.9 95.8 88.2 173.8zM298.2 70.5s18.3 26.9 31.9 54.4c17.5 35.2 25 62.8 25 62.8S412.2 52.9 452.4 0C341 32.5 298.2 70.5 298.2 70.5zm-23.8 20.9c-62.8 57.5-107.7 118-135.1 169.3 52.4 24.8 94.6 52 121.3 70.9-2.3-20.7-17.3-148.1 13.8-240.2z"/><path class="st0" d="M0 17.3v195c34.9 7.5 68.1 18.3 98.8 30.6 3.5-97-28.6-182.1-98.8-225.6zm118.6 175.5c17.2-37.2 69.8-114.9 130.8-154.5-10.7-8.3-22.5-15.5-35.4-20.9-73.6 52.3-95.4 175.4-95.4 175.4z"/><path class="st0" d="M108.9 247.1c1.1.5 14.9 6.4 20.5 9 9.9-21 59.1-105.4 152.5-185.6-3.9-4.7-13.9-16.6-23.8-25-114 78.2-149.2 201.6-149.2 201.6zM285.6 58.4c0-.1-.1-.1 0 0zm0 0c.2.1.1.1 0 0z"/><path class="st0" d="M267 39.5c2.4 2.3 13.2 12.7 18.6 18.9-.1-.1-.1-.1 0 0 6.2-15.9 12.7-27.8 19.5-38-8.8 3.3-22.1 9.2-38.1 19.1zm22 38.1s-38.5 102.3-16.4 261.2c8.7 6.5 19.4 15.1 19.4 15.1s34-98.3 55.9-148.5c-6.1-24.9-19.5-68.7-58.9-127.8z"/></svg>