<svg id="Layer_1" xmlns="http://www.w3.org/2000/svg" viewBox="0 0 497.5 140.4"><style>.st0{fill-rule:evenodd;clip-rule:evenodd}.st0,.st1{fill:#fff}</style><path class="st0" d="M91.3 124.7c-1.1.1-2.1.1-3.2.1-1.2 0-2.4-.1-3.6-.1l3.5-8.4 3.3 8.4m3.9 9.6c.6 0 1.6-.2 2.5-.2 1 0 2.2.2 2.7.2-1.6-3.3-3.8-8.5-5.1-11.5-1.2-2.9-3.3-7.7-4.9-12.4-.4.1-.7.2-1.1.2-.4 0-.8-.1-1.1-.2-.8 2.8-2.8 7.3-6.3 15l-4 8.9c.5-.1 1-.2 1.5-.2.6 0 1.2.1 1.7.2.6-2 1.6-4.8 2.7-7.5 1.4-.1 2.7-.1 4.1-.1 1.5 0 2.9.1 4.4.1l1.4 3.7 1.5 3.8z"/><path class="st1" d="M103.4 118.6c0 5.9 0 11.5-.4 15.6.8 0 1.7-.2 2.5-.2s1.6.2 2.4.2c-.3-2.8-.3-6.5-.3-11.6 0-3.5 0-9.4.4-12-.8.1-1.7.2-2.4.2-.5 0-1.8-.1-2.4-.2.2 3.4.2 5.9.2 8"/><path class="st0" d="M123.8 122.6c3.1-.6 6-2.5 6-6.4 0-1.4-.6-2.9-1.6-3.9-1.5-1.4-3.2-1.7-5.4-1.7-.8 0-4.8.2-5.7.2-1.8 0-2.7-.1-3.4-.2.2 4.4.2 4.9.2 9.4 0 6.6 0 7.4-.3 14.2.8-.1 1.6-.2 2.4-.2.9 0 1.6.1 2.3.2 0-.9-.1-5.3-.1-6.3V123h.8c1.9 2.6 4 5.6 5.7 8.4.5.8 1.3 2.1 1.8 2.8 1-.1 1.4-.2 2.8-.2 1.2 0 2.1.1 3.1.2-2.2-2.7-3.1-3.9-5.8-7.7-.5-.7-1.3-1.9-1.8-2.6l-1-1.3m-5.6-10.1c.5 0 1.8-.2 2.4-.2 1.1 0 2.3.2 3.2.9 1.2.9 1.4 2.1 1.4 3.6 0 2.2-1.3 4.7-4.7 4.7-.9 0-1.7-.1-2.4-.1v-8.9z"/><path class="st1" d="M141.7 126.2c-1.6-4.8-3.8-11.5-4.9-15.5-.9.1-1.6.2-2.4.2-.8 0-2-.1-2.7-.2 1.4 3.7 2.6 7 3.5 9.6 1.6 4.5 2.6 7.6 3.9 11.3l.9 2.6c.5-.1 1-.2 1.4-.2.4 0 .7.1 1.3.2.5-1.8 1.2-4 1.7-5.4 1.3-3.9 1.5-4.5 3.3-9.3l1-2.9c.4 1.1 1 2.9 1.4 3.9.4 1.1 2.1 6.3 2.5 7.5.6 1.5.7 2 2 6.1.3 0 1-.2 1.5-.2s.9.1 1.4.2c1.3-4.1 1.4-4.5 3.4-10 1.9-5.4 3.1-8.4 5.1-13.6-.5.1-1 .2-1.5.2-.6 0-1.2-.1-1.6-.2-1.2 4.5-1.9 6.6-2.8 9.6-1.6 4.8-1.8 5.4-2.8 8-1.1-3-2.2-6-3.2-9-.6-1.7-2.6-8.5-2.7-8.6-.5.1-.8.2-1.5.2-.6 0-1.1-.1-1.5-.2-1 4.2-4.7 14.3-5 15.2l-.9 2.2-.8-1.7"/><path class="st0" d="M176.4 124.7c-1.1.1-2.1.1-3.2.1-1.2 0-2.4-.1-3.6-.1l3.5-8.4 3.3 8.4m3.9 9.6c.6 0 1.6-.2 2.5-.2 1 0 2.2.2 2.7.2-1.5-3.3-3.8-8.5-5.1-11.5-1.2-2.9-3.3-7.7-5-12.4-.4.1-.7.2-1.1.2-.4 0-.8-.1-1.1-.2-.8 2.8-2.8 7.3-6.3 15l-4 8.9c.5-.1 1-.2 1.5-.2.6 0 1.2.1 1.7.2.6-2 1.7-4.8 2.8-7.5 1.4-.1 2.7-.1 4.1-.1 1.5 0 2.9.1 4.4.1l1.4 3.7 1.5 3.8z"/><path class="st1" d="M194.7 125.1c0-.3.2-.7.4-1.1 1.4-2.5 2.8-5.1 4.3-7.5.5-.8 3-4.8 3.5-5.7-.4.1-.8.2-1.4.2-.8 0-1.4-.1-2-.2-2.5 5.4-3 6.6-5.9 11.6-2.9-5.1-4.2-7.8-6-11.6-1 .2-2 .2-2.8.2-.8 0-1.5-.1-2.8-.2 1.8 3 4.7 7.7 6.5 10.8l2 3.5c0 2.1-.1 6.6-.2 9.3.7-.1 1.6-.2 2.3-.2.8 0 1.6.1 2.4.2-.1-3.2-.2-5-.2-7.9v-1.4M205 129.1c-.2 1.6-.2 2.1-.8 3.9 1.2.6 3.5 1.8 6.4 1.8 6.3 0 8.7-4 8.7-7.5 0-1-.2-3-1.7-4.5-1-1.1-2-1.5-4.7-2.5-3-1.2-4.8-1.9-4.8-4.4 0-2 1.3-3.7 4.1-3.7 2.2 0 4 1 4.5 3h.5c.3-1.3.4-1.6 1.1-3.3-1.7-.8-3.2-1.4-5.7-1.4-6.2 0-8 3.8-8 6.9 0 2.9 1 4.6 4.3 6.1 1 .4 2.6 1 3.5 1.4.7.3 2.8 1.2 2.8 4 0 2.5-1.8 4.3-4.5 4.3-2 0-3.8-.5-5.3-4h-.4"/><path class="st0" d="M14.1 65.6c0-26 13.9-33 24.4-33 16.9 0 24.2 14 24.2 29 0 8.6-1 16.6-5.3 23.1-4.2 6.5-11.2 10.4-18.9 10.4-18.9 0-24.4-18.1-24.4-29.5m51.4 53.1c3.1-2.2 7.9-4.8 11.4-6.4L53.6 97.9c14.3-5 23.3-17.8 23.3-35.2C76.9 38 58 27.4 38.8 27.4 17.9 27.4 0 38.9 0 65.1c0 5.6 1.2 16.1 9.9 24.8 9 9.1 19.6 10.4 28.6 10.4 1.1 0 2.3 0 3.4-.1l23.6 18.5zM125 70.2c-3.2.2-6.3.4-9.5.4-3.6 0-7.1-.3-10.7-.4l10.5-25.4 9.7 25.4m11.6 28.7c1.9-.1 4.7-.6 7.6-.6 2.9 0 6.5.5 8 .6-4.6-10-11.4-25.6-15.4-34.5-3.7-8.7-9.9-23.1-14.8-37.2-1.1.3-2.2.5-3.3.5-1.2 0-2.3-.2-3.4-.5-2.5 8.5-8.5 21.9-18.9 45.1l-12 26.6c1.4-.2 2.9-.6 4.6-.6 1.6 0 3.6.4 5 .6 1.6-5.9 4.9-14.4 8.2-22.4 4.1-.2 8.2-.4 12.4-.4 4.4 0 8.8.2 13.2.4l4.3 10.9 4.5 11.5z"/><path class="st1" d="M182.4 46.7c0-3.9.1-7.8.2-11.6 7.1 0 14.4.1 20.5.7-.3-1.7-.5-2.6-.5-3.7 0-.8.2-2.2.5-3.9-9.9.5-19 .6-27.5.6-7.9 0-19.4-.1-27.5-.6.3 1.2.5 2.6.5 3.8 0 1.2-.2 2.6-.5 3.8 5.3-.5 15.2-.7 16.1-.7h5.2c.1 4 .2 7.6.2 11.4l.1 28.8c0 7.8-.6 15.8-1 23.6 3.7-.4 5.3-.6 7-.6 1.2 0 4.5.3 7.5.6-.3-2.9-.7-6.3-.7-14.1V46.7"/><path class="st0" d="M239.7 70.2c-3.2.2-6.3.4-9.5.4-3.6 0-7.1-.3-10.7-.4L230 44.8l9.7 25.4m11.7 28.7c1.8-.1 4.7-.6 7.6-.6 2.9 0 6.5.5 8 .6-4.6-10-11.4-25.6-15.4-34.5-3.7-8.7-9.9-23.1-14.8-37.2-1.1.3-2.2.5-3.3.5-1.2 0-2.3-.2-3.4-.5-2.5 8.5-8.4 21.9-18.9 45.1l-12 26.6c1.4-.2 2.9-.6 4.6-.6 1.7 0 3.6.4 5 .6 1.6-5.9 4.9-14.4 8.2-22.4 4.1-.2 8.2-.4 12.4-.4 4.4 0 8.8.2 13.2.4l4.3 10.9 4.5 11.5zM308.6 63.9c9.4-1.7 17.9-7.6 17.9-19.1 0-4.3-1.7-8.6-4.7-11.5-4.4-4.2-9.5-5-16.2-5-2.4 0-14.3.5-17 .5-5.3 0-7.9-.3-10.3-.5.7 13.3.7 14.7.7 28.2 0 19.9-.1 22.2-.9 42.5 2.3-.3 4.7-.6 7.1-.6 2.6 0 4.9.4 6.9.6 0-2.7-.4-16-.4-19V65.3h2.5c5.6 7.8 12 16.9 17.2 25 1.5 2.4 3.8 6.2 5.4 8.6 3.1-.4 4.3-.6 8.3-.6 3.7 0 6.3.3 9.2.6-6.5-8.1-9.3-11.8-17.4-23.2-1.6-2.2-3.8-5.6-5.4-7.7l-2.9-4.1m-16.9-30.1c1.5-.1 5.4-.5 7.3-.5 3.4 0 6.8.5 9.6 2.6 3.6 2.7 4.3 6.4 4.3 10.7 0 6.7-3.8 14.2-14.1 14.2-2.7 0-5.2-.2-7.1-.3V33.8z"/><path class="st1" d="M234.5 130.5h-4.2s-.6-2.6 1-3.6c1.5-1 3.3-1.8 3.3-1.8v5.4m20-9.7s-2.6 1.5-4.2 2.9.3 2 .3 2v4.8h-12.3v-17s-4.5 4.1-4.9 4.7c-.4.6 1.1 1.1 1.1 1.1l-.2 1.6s-1.8.9-4 2.4c-2.2 1.4-3.8 3.3-3.8 4.6 0 1.3-.5 6.3-.5 6.3h28.5v-13.4zm-25.5-6.2c1.4 0 2.4-.6 2.4-1.7s-.7-1.9-2.4-1.9c-1.6 0-2 .7-2 1.9.1 1.3.6 1.7 2 1.7zm5.3 0c1.4 0 2.4-.6 2.4-1.7s-.7-1.9-2.4-1.9c-1.6 0-2 .7-2 1.9 0 1.3.6 1.7 2 1.7zm7.9 21.1c-1.5 0-2 .7-2 1.9s.5 1.7 2 1.7c1.4 0 2.4-.6 2.4-1.7s-.6-1.9-2.4-1.9zm5.5 0c-1.5 0-2 .7-2 1.9s.6 1.7 2 1.7 2.4-.6 2.4-1.7-.7-1.9-2.4-1.9zm61.4-21.4c1.4 0 2.4-.5 2.4-1.7 0-1.1-.7-1.9-2.4-1.9-1.5 0-1.9.7-1.9 1.9-.1 1.2.5 1.7 1.9 1.7zm5.4 0c1.4 0 2.4-.5 2.4-1.7 0-1.1-.7-1.9-2.4-1.9-1.5 0-2 .7-2 1.9.1 1.2.6 1.7 2 1.7zm15 .4c-.8.7-.5 1.5.4 1.3v18.2h4v-22.7c.1.1-3.6 2.6-4.4 3.2zm-16.2 10.2h-2.6c0-1.4 2.6-2.2 2.6-2.2v2.2zm-17.2 3c0 .7 0 1.7-.1 2.6h-22.8v-4c.6-1.5 1.6-1.7 3.2-1.7h16.7c3.6 0 3 1.9 3 3.1zm26.7-11.9v14.5h-5.4v-13.2s-1.1.4-2.6 1.1c-1.5.7-7 2.9-7 5.9v3.5h5.6v2.7h-13.2v-2.9c0-4.3-3.7-6.7-7-6.7H278c-2.7 0-4 .6-4.7 1.4v-11.2s-2.4 1.7-4.1 3c-1.7 1.3 0 2.2 0 2.2v14.2h-5l-.1-12.2s-3.5 2.5-4.5 3.3c-1 .8-.4 1.5.7 1.5 0 0-.2 9-.2 11.1 0 2.1-1.8 4.6-5.5 3.5 0 0-1.2.2-.2 1.1 1 .9 2.2 1.6 3.5 1.6 1.3 0 6.1-.9 6.1-6.1h62.9v-22.7s-3.7 2.4-4.5 3.1c-.7.7-.5 1.5.5 1.3zM406.3 95.9c-3.4 1.2-7.5 1.9-9.1 1.9-2.9 0-7.5 1.6-9.2 3 6.9-.1 14.3-.3 21.5-.4-.5-.7-2-3-2-3-.5-.9-.9-1.3-1.2-1.5.1 0 .1 0 0 0m-41.8-51.4c9 0 25.7-.2 42.1-.6 1.9-1.5 3.8-3 5.8-4.5-18.2-.5-37.8-.7-47.9-.7-4.3 0-7.7 1.3-7.7 2.9 0 1.6 3.5 2.9 7.7 2.9m2.6-14.2c0 1.3 2.7 2.3 6.1 2.3 10.3 0 33.2-.4 49.9-.9 1.2-.9 2.5-1.8 3.7-2.6-16.8-.6-42.5-1.1-53.6-1.1-3.3 0-6.1 1.1-6.1 2.3m74.3 32c1.8 1.1 4.1 2.2 6.8 3.2 8.8-.4 14.4-.9 14.4-1.4.1-.7-8.6-1.3-21.2-1.8m-82.1-6.2c7.7 0 20.2-.1 33.8-.4 2-1.9 4.1-3.8 6.3-5.7-16-.3-31.2-.5-40-.5-4.8 0-8.7 1.5-8.7 3.3-.1 1.8 3.8 3.3 8.6 3.3m87.1-15.4c-1.3.7-2.6 1.3-3.8 2 6.4-.3 10.5-.7 10.5-1.1 0-.3-2.6-.6-6.7-.9M386.9 23c9.8 0 39.6-.7 39.6-1.6 0-.9-29.8-1.6-39.6-1.6-1.9 0-3.4.7-3.4 1.6-.1.9 1.5 1.6 3.4 1.6m64.2 29.5c-.1.3-.3.8-.6 1.4 5.4-.3 8.8-.7 8.8-1.1 0-.4-3-.7-8-1l-.2.7zM414 106.9c-18.6-.5-39.1-.8-49.5-.8-4.3 0-7.7 1.3-7.7 2.9 0 1.6 3.4 2.9 7.7 2.9 10.9 0 33-.3 52.4-.9-.9-1.3-1.9-2.7-2.9-4.1m8.9 12c-16.7-.6-39.4-.9-49.7-.9-3.3 0-6.1 1-6.1 2.3 0 1.3 2.7 2.3 6.1 2.3 10.7 0 35.2-.4 52-1-.8-.9-1.6-1.8-2.3-2.7m-39.5 10.3c0 .9 1.5 1.6 3.4 1.6 9.8 0 39.6-.7 39.6-1.6 0-.9-29.8-1.6-39.6-1.6-1.8 0-3.4.7-3.4 1.6M365.8 90c.2-.8.5-1.7 1.3-2.7-.1.1-.2.2-.1 0 .7-1.1 1.6-2.6 2.7-4.2-5.1 0-9.7-.1-13.2-.1-5.1 0-9.2 1.6-9.2 3.5 0 2 4.1 3.5 9.2 3.5h9.3m7.5 11c-1.2-1.2-5.4-6-5.9-6.5h-8.1c-4.8 0-8.7 1.5-8.7 3.3 0 1.8 3.9 3.3 8.7 3.3 3.7 0 8.5 0 14-.1m-.6-22.3c1.5-2.1 3.3-4.4 5.3-6.8-9-.1-16.9-.2-22.4-.2-5.2 0-9.4 1.6-9.4 3.6s4.2 3.6 9.4 3.6c4.4 0 10.3-.1 17.1-.2m-16.2-11.1c6.1 0 15.1-.1 25.4-.2 1.8-2.1 3.8-4.2 6-6.5-12.7-.2-24.1-.3-31.4-.3-5.1 0-9.2 1.6-9.2 3.5s4.1 3.5 9.2 3.5"/><path class="st1" d="M463.6 72.6c.1 1.8.1 3.6 0 5.3-17.4.7-33.8 1.7-33.8 2.9s16.1 2.2 33.2 2.9c-.3 2-.7 3.9-1.2 5.8-16.9.7-32.6 1.7-32.6 2.9 0 1.1 14.6 2.1 30.9 2.8-.7 2.1-1.6 4.1-2.5 6-13.9.7-25.4 1.6-25.4 2.5 0 .9 10.1 1.8 22.7 2.4-.7 1.2-1.5 2.3-2.2 3.4-.8 1.2-1.7 2.3-2.7 3.5-7.9.6-13.4 1.3-13.4 2 0 .6 3.9 1.2 9.9 1.8-3.3 3.2-7.1 6.3-11.7 8.9 0 0-5.4-4.6-9.8-10-4-4.8-12.3-17.5-14.3-20.4-2-2.8-3.3-3.7-5.6-2.8-3.1 1.1-6.7 1.6-7.8 1.6-1.1 0-1.7-.4.1-1.2 1.8-.7 9.2-4.2 12.8-11.3 4-8 .5-19.1.5-19.1-1.4 5.9-4.4 8.1-4.4 8.1 1-5.5-.1-10.5-2.8-14l-1.5 7s-1 0-3.3 1.9c-2.3 2-3 4.9-3 4.9 1.9.7 4.1-1.1 4.1-1.1-2.8 10.6-6.9 19.3-9.9 23.8-3 4.6-5.4 6.3-8.4 7.5-2.5 1-3.3-.2-3.3-.2-2.2-1.9-3.8-3.6-5.5-5.7 0 0-.1-.2.3-.2 1.2 0 3.4-2.1 3.9-2.9.5-1 .5-1.7.2-1.8-.3 0-.7.7-3.1 2.2-2.3 1.5-3.4.5-4.2-.4-.6-.7 0-1.5.4-2s12.7-23.6 45.5-47.8c43-31.8 70.4-40.4 72-41 1-.4 2.7-.9 3.1-.6.4.4.6.8.6 1.3-.1.5-.3.8-2.3 1.7-16.5 7.3-35.8 19.4-46.7 26.4-13.5 6.6-26.3 15.9-26.8 16.1-1 .6-.3 1.6.4 1.2 22.7-15.1 49.4-25.4 78.8-33.8 1.4-.4 2.2-.4 2.4-.1.3.3.4.7.4 1.2s-.4.8-1.6 1.3c-31.6 11.7-54.9 22.7-69.9 32.7 0 0-1.6.9-1.6 2 0 .4.8.5.8.5 7.5.1 17.5.6 22.3.9 0 0-.7 2.4-5.2 4.4-3.5 1.5-6.8 1.3-10 1.3-.7 0-1.3.7-.8 1.5.2.2 7 11.3 32 13.8"/></svg>