<?xml version="1.0" encoding="utf-8"?>
<!-- Generator: Adobe Illustrator 22.0.1, SVG Export Plug-In . SVG Version: 6.00 Build 0)  -->
<svg version="1.1" id="Layer_1" xmlns="http://www.w3.org/2000/svg" xmlns:xlink="http://www.w3.org/1999/xlink" x="0px" y="0px"
	 viewBox="0 0 1243.5 323.1" style="enable-background:new 0 0 1243.5 323.1;" xml:space="preserve">
<style type="text/css">
	.st0{fill:url(#SVGID_1_);}
	.st1{fill:#FFFFFF;}
	.st2{fill:url(#SVGID_2_);}
	.st3{fill:url(#SVGID_3_);}
	.st4{fill:url(#SVGID_4_);}
</style>
<title>partner</title>
<g>
	<linearGradient id="SVGID_1_" gradientUnits="userSpaceOnUse" x1="219.2492" y1="245.1852" x2="51.1846" y2="-0.2669">
		<stop  offset="0" style="stop-color:#BE0000"/>
		<stop  offset="0.3898" style="stop-color:#DE0000"/>
		<stop  offset="0.768" style="stop-color:#F60000"/>
		<stop  offset="1" style="stop-color:#FF0000"/>
	</linearGradient>
	<path class="st0" d="M93.6,245.5h251.8L143.6,42.9C116.7,16,80.2,0,42.2,0H0l3.1,8.3l14,36.7L93.6,245.5z"/>
</g>
<path class="st1" d="M17.1,44.9C44.7,92,117,97,124.9,170.2c0.3,3,2.6,5.4,5.6,5.9c41.7,6.5,82.3,23.7,117.6,52l0,0
	c0.2,0.2,0.5,0.3,0.8,0.3c0.3,0,0.6-0.1,0.9-0.3c0.5-0.5,0.5-1.3,0-1.8c-24.4-25.7-54.3-46.2-87.8-59.7l-10.2-4.1
	c-5.2-2.1-8.9-7.3-8.7-13.3c0.6-21.9,52.3-17.4,57.5-27.9l0.9-1.8c-10.7-9.1-23.3-15.9-37.2-19.8c-0.1,0.5-0.5,3.1,2.4,7.7
	c3.1,5-3.4,13-12.8,4.4l-0.8-0.7C83.2,46.9,30.8,80.1,3.1,8.3L17.1,44.9z"/>
<linearGradient id="SVGID_2_" gradientUnits="userSpaceOnUse" x1="172.455" y1="133.888" x2="174.7193" y2="108.0071">
	<stop  offset="0.65" style="stop-color:#FFFFFF;stop-opacity:0"/>
	<stop  offset="0.7285" style="stop-color:#E0E0E0;stop-opacity:0.2617"/>
	<stop  offset="0.8148" style="stop-color:#C5C5C5;stop-opacity:0.5493"/>
	<stop  offset="0.8914" style="stop-color:#B5B5B5;stop-opacity:0.8047"/>
	<stop  offset="0.95" style="stop-color:#AFAFAF"/>
</linearGradient>
<path class="st2" d="M185.2,118.2c0,0-11.5,0.6-18.5-10.9c2.1,3.4-0.2,8.2-4.9,8.2V133c7.5-2.2,16.1-3.5,23.4-5V118.2z"/>
<linearGradient id="SVGID_3_" gradientUnits="userSpaceOnUse" x1="139.1925" y1="202.183" x2="248.1229" y2="202.183">
	<stop  offset="0" style="stop-color:#FFFFFF;stop-opacity:0"/>
	<stop  offset="8.390770e-02" style="stop-color:#F1F1F1;stop-opacity:9.323078e-02"/>
	<stop  offset="0.2921" style="stop-color:#D4D4D4;stop-opacity:0.3246"/>
	<stop  offset="0.4993" style="stop-color:#C0C0C0;stop-opacity:0.5548"/>
	<stop  offset="0.7032" style="stop-color:#B3B3B3;stop-opacity:0.7814"/>
	<stop  offset="0.9" style="stop-color:#AFAFAF"/>
</linearGradient>
<path class="st3" d="M139.2,177.6c38.6,7.4,76.1,24.1,108.9,50.5C174.9,165.5,141.6,176.8,139.2,177.6z"/>
<linearGradient id="SVGID_4_" gradientUnits="userSpaceOnUse" x1="3.1455" y1="89.2093" x2="124.9108" y2="89.2093">
	<stop  offset="0.25" style="stop-color:#FFFFFF;stop-opacity:0"/>
	<stop  offset="0.4615" style="stop-color:#EDEDED;stop-opacity:0.282"/>
	<stop  offset="0.886" style="stop-color:#BDBDBD;stop-opacity:0.848"/>
	<stop  offset="1" style="stop-color:#AFAFAF"/>
</linearGradient>
<path class="st4" d="M31.8,48.2L31.8,48.2c-11.4-8.1-21-20-28.7-40l14,36.7C44.7,92,117,97,124.9,170.2
	C117,76.8,75.9,90.7,31.8,48.2z"/>
<g>
	<g>
		<path class="st1" d="M371,200.5c-49.8,0-81.4-25.9-81.4-58.4c0-33,33.5-58.4,82.8-58.4c49.3,0,82.8,25.5,82.8,57.1
			c0,14.2-6.3,25.7-18.3,35.5h29.3l-7,12c-4.4,7.6-9.9,12.2-21.6,12.2H371z M372.4,174c27.2,0,50.1-13.4,50.1-31.9
			s-22.9-31.9-50.1-31.9c-27.2,0-50.1,13.4-50.1,31.9S345.2,174,372.4,174z"/>
		<path class="st1" d="M588.5,180.7h-78.4L499,200.5h-32.5l54.4-94.1c4.3-7.4,10.4-13.2,22.7-13.2h12.2c12.3,0,18.5,5.7,22.7,13.2
			l54.4,94.1h-33.2L588.5,180.7z M523.4,157.1h51.8l-24-42.8c-0.6-1-1-1.3-1.9-1.3c-0.9,0-1.3,0.3-1.9,1.3L523.4,157.1z"/>
		<path class="st1" d="M787.6,93.2v107.3h-29l-85.2-71.1v71.1h-29V93.2h18.2c9.3,0,14,2.4,19.3,7l76.8,63.9V93.2H787.6z"/>
		<path class="st1" d="M890.8,117.4v83.1h-29v-83.1h-59.5V93.2h148v24.2H890.8z"/>
		<path class="st1" d="M1047,180.7h-78.4l-11.2,19.7H925l54.4-94.1c4.3-7.4,10.4-13.2,22.7-13.2h12.2c12.3,0,18.5,5.7,22.7,13.2
			l54.4,94.1h-33.2L1047,180.7z M981.9,157.1h51.8l-24-42.8c-0.6-1-1-1.3-1.9-1.3c-0.9,0-1.3,0.3-1.9,1.3L981.9,157.1z"/>
		<path class="st1" d="M1101.4,192.7l-2.7-0.9l7.3-23.3c20.9,6.7,43.2,9.4,63.4,9.4c33,0,41.2-3.9,41.2-8c0-1.7-1.1-3-3.7-3.9
			c-3.3-1.1-12.4-3-39.5-7.4c-29.9-4.9-43.3-7.3-53.2-11.9c-9.9-4.6-15.9-11.9-15.9-22.6c0-8.2,4-14.7,10.4-19.9
			c11.4-8.9,31-12.4,52.3-12.4c27.5,0,50.5,2.3,76.1,8.6l2.3,0.7l-6.2,22.7c-28.6-6.2-44.5-7.9-66.2-8.2c-15.3-0.1-25.9,1-31.5,2.7
			c-3.1,1-4.4,2.4-4.4,4.1c0,1.6,1,3,4.1,4c3.4,1.1,9,2.4,38.3,7.2c31.8,5.1,42.2,7.3,50.9,10.7c11.9,4.6,19,13,19,23.6
			c0,13.3-10.3,23.2-28.2,28.6c-11,3.3-25.7,5.1-42.3,5.1C1147,201.9,1119.2,198.5,1101.4,192.7z"/>
	</g>
</g>
<g>
	<path class="st1" d="M664.3,262.7v-1.5c0-6.1-4.4-10.8-12-10.8c-7.5,0-11.8,3.8-11.8,9.1c0,4.2,3,7.3,7,8.8l10,4
		c7,2.8,14.8,6.4,14.8,16.8c0,10.7-8.1,17.6-19.9,17.6c-11.8,0-20-6.5-20-17v-1.5h7v1.8c0,6.2,4.7,10.7,12.9,10.7
		c8.3,0,13-4.6,13-10.8c0-6.5-4.7-9.1-10.4-11.3l-8.6-3.5c-6.9-2.7-12.5-7.1-12.5-15.2c0-9.1,7.4-15.5,18.6-15.5
		c11.1,0,18.9,6.5,18.9,17v1.1H664.3z"/>
	<path class="st1" d="M688.5,266.2c2.7-3.9,7-6.2,12.4-6.2c9.8,0,15.7,6.5,15.7,16.6v13.5c0,10.1-5.9,16.6-15.7,16.6
		c-5,0-9.1-1.9-11.8-5.4v21.7h-6.8V261h5.2L688.5,266.2z M689.1,277.2v12.7c0,6.3,4,11,10.7,11c6.6,0,10-4.5,10-10.4v-14.1
		c0-5.8-3.4-10.4-10-10.4C693.1,266,689.1,270.9,689.1,277.2z"/>
	<path class="st1" d="M730.4,243.9c2.4,0,4.4,1.9,4.4,4.4c0,2.4-1.9,4.3-4.4,4.3c-2.5,0-4.5-1.9-4.5-4.3
		C726,245.8,727.9,243.9,730.4,243.9z M733.8,261v45H727v-45H733.8z"/>
	<path class="st1" d="M745.4,305.9v-45h5.2l1.1,5.7c2.5-4,6.8-6.6,12.1-6.6c0.7,0,1.5,0.1,2.2,0.2v6.4c-0.7-0.1-1.8-0.3-2.8-0.3
		c-6.5,0-11.1,4.5-11.1,11.2v28.3H745.4z"/>
	<path class="st1" d="M777.7,243.9c2.4,0,4.4,1.9,4.4,4.4c0,2.4-1.9,4.3-4.4,4.3c-2.5,0-4.5-1.9-4.5-4.3
		C773.3,245.8,775.2,243.9,777.7,243.9z M781.1,261v45h-6.8v-45H781.1z"/>
	<path class="st1" d="M789.5,261.2h8.7V249h6.9v12.2h8.7v5.7h-8.7v39h-6.9v-39h-8.7V261.2z"/>
	<path class="st1" d="M873,289.4c0,10.8-7.1,17.5-17.4,17.5c-10.3,0-17.3-6.7-17.3-17.5v-11.9c0-10.8,7-17.5,17.3-17.5
		c10.3,0,17.4,6.7,17.4,17.5V289.4z M845.1,289.9c0,6.3,3.8,11.1,10.5,11.1c6.7,0,10.5-4.8,10.5-11.1v-12.9
		c0-6.3-3.8-11.1-10.5-11.1c-6.7,0-10.5,4.8-10.5,11.1V289.9z"/>
	<path class="st1" d="M879.8,261.2h7.2V259c0-9.9,5.3-15.4,15.2-15.4h3.9v5.8h-3.5c-6.5,0-8.7,3.8-8.7,9.1v2.7h11.7v5.7h-11.7v39
		h-6.9v-39h-7.2V261.2z"/>
	<path class="st1" d="M927,305.9l19.5-60.4h7.2l19.7,60.4H966l-4.5-13.9h-23.2l-4.4,13.9H927z M940.1,286h19.6l-9.9-31L940.1,286z"
		/>
	<path class="st1" d="M980.3,261h6.8v29.8c0,5.7,3.3,10.1,9.6,10.1c6.6,0,10.6-4.8,10.6-11V261h6.8v45h-5.2l-1-5.2
		c-2.7,3.8-7.1,6.1-12.4,6.1c-9.7,0-15.1-6.3-15.1-16.1V261z"/>
	<path class="st1" d="M1029.7,292.1v1.6c0,4.5,3.9,7.8,10.6,7.8c6.3,0,9.7-3.1,9.7-7.5c0-3.7-1.8-5.5-6-6.8l-8.7-2.7
		c-5.3-1.6-10.5-4.8-10.5-11.8c0-6.8,6.2-12.6,15.3-12.6c9.6,0,16.2,4.9,16.2,13.2v0.7h-6.4v-1.1c0-4.1-3.5-7.5-9.8-7.5
		c-4.2,0-8.9,2.1-8.9,6.7c0,3,1.7,4.9,5.5,6l7.7,2.4c6.8,2.1,12.3,4.9,12.3,12.7c0,8.1-6.3,13.7-16.2,13.7c-9.9,0-17-5.2-17-13.6
		v-1.2H1029.7z"/>
	<path class="st1" d="M1063.3,261.2h8.7V249h6.9v12.2h8.7v5.7h-8.7v39h-6.9v-39h-8.7V261.2z"/>
	<path class="st1" d="M1096.1,305.9v-45h5.2l1.1,5.7c2.5-4,6.8-6.6,12.1-6.6c0.7,0,1.5,0.1,2.2,0.2v6.4c-0.7-0.1-1.8-0.3-2.8-0.3
		c-6.5,0-11.1,4.5-11.1,11.2v28.3H1096.1z"/>
	<path class="st1" d="M1123.3,276.7c0-10.1,5.9-16.6,15.7-16.6c5.4,0,9.7,2.3,12.4,6.1l1-5.2h5.2v45h-5.2l-1-5.2
		c-2.7,3.8-7.1,6.1-12.4,6.1c-9.8,0-15.7-6.5-15.7-16.6V276.7z M1150.8,289.8v-12.7c0-6.3-4-11.1-10.7-11.1c-6.6,0-10,4.6-10,10.4
		v14.1c0,5.9,3.4,10.4,10,10.4C1146.8,300.9,1150.8,296.1,1150.8,289.8z"/>
	<path class="st1" d="M1176.2,243.7v62.3h-6.8v-62.3H1176.2z"/>
	<path class="st1" d="M1191.4,243.9c2.4,0,4.4,1.9,4.4,4.4c0,2.4-1.9,4.3-4.4,4.3c-2.5,0-4.5-1.9-4.5-4.3
		C1187,245.8,1188.9,243.9,1191.4,243.9z M1194.8,261v45h-6.8v-45H1194.8z"/>
	<path class="st1" d="M1205.1,276.7c0-10.1,5.9-16.6,15.7-16.6c5.4,0,9.7,2.3,12.4,6.1l1-5.2h5.2v45h-5.2l-1-5.2
		c-2.7,3.8-7.1,6.1-12.4,6.1c-9.8,0-15.7-6.5-15.7-16.6V276.7z M1232.6,289.8v-12.7c0-6.3-4-11.1-10.7-11.1c-6.6,0-10,4.6-10,10.4
		v14.1c0,5.9,3.4,10.4,10,10.4C1228.6,300.9,1232.6,296.1,1232.6,289.8z"/>
</g>
</svg>
